<?xml version="1.0" encoding="utf-8"?>
<svg width="424.19995px" height="424.2002px" viewBox="0 0 424.19995 424.2002" version="1.1" xmlns:xlink="http://www.w3.org/1999/xlink" xmlns="http://www.w3.org/2000/svg">
  <g id="Group">
    <path d="M101 0C45.3355 0 0 45.3356 0 101L0 323.2C0 378.865 45.3355 424.2 101 424.2L323.2 424.2C378.864 424.2 424.2 378.865 424.2 323.2L424.2 101C424.2 45.3356 378.864 0 323.2 0L101 0L101 0Z" id="Shape-Path" fill="#245D38" stroke="none" />
    <path d="M209.459 221.267L205.395 215.984L205.395 213.95L205.903 213.138L205.395 212.324C208.105 214.763 210.138 216.796 211.493 218.422C210.816 220.319 210.138 221.267 209.459 221.267L209.459 221.267ZM203.362 232.242L194.216 214.763C196.248 215.576 198.366 217.608 200.567 220.861C202.769 224.113 203.871 226.551 203.871 228.178C203.871 229.261 203.7 230.616 203.362 232.242L203.362 232.242ZM206.92 224.925L203.871 219.642L203.362 218.422L204.379 218.422L207.427 220.861L209.459 221.674L207.935 222.487L207.427 224.52L206.92 224.925L206.92 224.925ZM230.293 236.715L228.769 235.901L232.833 233.463C232.157 234.546 231.648 235.496 231.31 236.308L230.293 236.715L230.293 236.715ZM234.866 244.438L233.85 244.031L233.85 240.78L235.374 236.714L235.883 240.78L234.866 244.438L234.866 244.438ZM212.509 242.404L211.493 240.373L211.493 238.34L214.032 238.34L212.509 242.406L212.509 242.404ZM106.311 264.763C105.971 263.95 105.803 263.002 105.803 261.917L105.81 262.14L105.834 262.26C105.971 262.646 106.556 260.705 107.59 256.44L107.835 255.414C107.497 255.142 107.665 254.872 108.344 254.6L108.85 254.6L109.359 255.007L106.311 264.763L106.311 264.763ZM103.262 375.738C103.262 372.486 103.77 367.607 104.786 361.104C105.803 354.599 106.311 349.721 106.311 346.47L105.803 344.437C104.109 351.213 103.26 361.647 103.26 375.738L103.262 375.738ZM308.063 320.907L308.113 321.432C308.612 327.148 309.433 331.835 310.577 335.494L310.577 329.803C310.577 326.482 309.929 323.785 308.632 321.71L308.063 320.907L308.063 320.907ZM100.787 269.17L100.264 272.002C97.6975 286.283 95.7914 301.782 94.5475 318.495L94.4634 319.6L94.5091 319.147C94.6902 317.266 94.8969 315.263 95.1311 313.136C97.9463 298.502 99.7865 284.648 100.652 271.573L100.787 269.17L100.787 269.17ZM114.15 341.657L114.441 341.185C114.779 342.268 114.949 343.353 114.949 344.437L114.944 344.392L114.955 342.851C115.006 335.114 115.456 330.331 116.299 328.504L116.473 328.177C116.473 327.907 116.134 327.771 115.458 327.771L115.256 327.776L115.238 327.991C114.762 333.753 114.415 338.143 114.188 341.162L114.15 341.657L114.15 341.657ZM331.391 347.738L331.428 348.185C332.273 358.311 334.13 366.818 337 373.705L332.427 353.38L332.934 351.754C332.42 350.68 331.983 349.583 331.624 348.47L331.39 347.738L331.391 347.738ZM324.936 319.937L325.002 320.807C325.34 325.219 325.613 328.761 325.821 331.429L325.821 320.86C325.624 320.702 325.44 320.534 325.273 320.355L324.936 319.937L324.936 319.937ZM320.464 293.295L320.372 293.105C320.211 292.801 319.993 292.432 319.723 291.999L319.214 291.592L317.69 291.185L317.69 281.023L318.707 281.429C319.723 285.223 320.401 288.068 320.738 289.966C320.738 284.816 320.401 281.836 319.723 281.023L320.74 268.827L324.296 311.51L324.598 315.475L324.612 315.767L324.634 315.665C324.691 315.41 324.755 315.138 324.826 314.853L325.059 313.95C325.567 312.052 325.821 310.562 325.821 309.478C325.821 308.666 325.651 307.852 325.313 307.038C327.007 310.291 328.108 317.336 328.615 328.177C328.988 336.126 329.862 342.473 331.236 347.216L331.39 347.738L331.24 345.618C331.071 343.019 330.965 340.319 330.923 337.517L330.901 334.681L330.901 333.461L331.41 332.648L330.395 331.429C332.087 323.3 332.934 317.608 332.934 314.355C332.934 302.431 332.173 284.546 330.647 260.698L330.453 257.621C329.059 235.305 328.36 218.445 328.36 207.04C328.36 205.143 328.108 202.229 327.599 198.3C327.091 194.371 326.837 191.321 326.837 189.154C326.837 184.547 327.175 177.637 327.854 168.422L328.004 166.336C328.58 158.159 328.869 151.944 328.869 147.691C328.869 145.522 329.462 142.338 330.647 138.138C331.834 133.938 332.427 130.752 332.427 128.585C332.427 114.222 328.869 102.298 321.755 92.8137C320.401 92.5415 319.384 92.2722 318.707 92L314.641 92L314.641 93.6258L312.611 93.6258L312.611 95.6585L309.053 93.6258L307.529 97.6912L305.495 96.0653L303.971 96.8775L302.447 96.8775L301.43 97.6912C300.415 97.1497 299.4 96.8775 298.383 96.8775L295.333 97.2844L295.333 99.317L292.793 97.2844C284.663 105.143 278.565 110.767 274.5 114.154C270.435 117.542 260.526 131.43 244.775 155.82C229.023 180.211 220.64 194.302 219.622 198.097C214.202 187.257 209.799 179.263 206.412 174.113C201.826 163.554 197.256 152.989 192.699 142.421C186.262 131.311 181.18 123.046 177.454 117.625C173.051 109.225 170.002 104.074 168.308 102.177L167.801 102.177L166.275 99.7394L165.254 99.317L161.696 99.317L159.155 100.943C158.478 100.401 157.463 99.8599 156.107 99.317L155.09 99.317L154.582 99.7238L154.075 99.317C152.637 100.187 151.278 101.138 150.009 102.162L148.485 100.537L144.422 100.537C143.745 100.265 142.898 100.131 141.881 100.131L142.139 100.141L142.265 100.156C142.607 100.246 140.963 100.589 137.332 101.181L136.291 101.35L135.784 100.943L133.752 103.382L130.703 102.162C124.265 106.77 119.186 113.003 115.459 120.861C106.648 140.102 99.3657 172.894 93.6054 219.234C89.2024 257.174 87 291.321 87 321.672L87 359.071C87.3384 361.781 87.5085 363.812 87.5085 365.169C92.25 309.614 96.8231 272.758 101.228 254.6L101.226 254.613L101.191 258.756C101.142 261.589 101.045 264.419 100.902 267.248L100.785 269.174L101.052 267.758C101.323 266.354 101.599 264.963 101.883 263.583L102.752 259.481L99.1955 307.856C101.226 293.222 102.922 280.755 104.275 270.457L105.292 269.645L105.801 270.052L105.801 267.608L106.309 265.982C106.309 269.776 105.801 277.229 104.784 288.34L106.309 288.34L109.357 271.267L107.833 268.827L109.865 266.389C110.204 266.931 110.374 268.693 110.374 271.672C110.712 272.215 111.221 272.758 111.898 273.299C110.883 269.234 111.559 264.221 113.93 258.259C113.93 263.679 113.253 271.674 111.9 282.242C110.542 292.811 109.865 300.671 109.865 305.819C109.865 309.614 110.204 313.407 110.883 317.202L111.898 312.729L111.898 311.51C110.883 309.885 110.374 308.259 110.374 306.633C110.712 305.549 111.221 304.735 111.898 304.193L110.883 303.38C112.575 294.438 113.762 287.527 114.439 282.649L114.342 283.328L114.073 282.942C113.747 282.389 113.544 281.739 113.464 280.99L113.422 280.21C113.422 278.855 114.609 275.061 116.979 268.827C116.979 266.66 116.471 264.627 115.456 262.731L116.471 262.324L119.012 263.136L114.523 283.068L114.559 283.214C114.797 284.783 114.927 288.588 114.943 294.629L114.943 295.66L114.962 293.866C115.11 283.788 116.297 276.2 118.52 271.102L119.012 270.048L120.029 271.672C118.413 290.231 116.827 308.83 115.278 327.432L115.22 328.073L115.258 328.006C115.3 327.889 115.331 327.757 115.353 327.612L115.386 327.142C115.386 326.465 116.063 325.855 117.416 325.313L116.91 322.467L117.418 321.655L117.925 321.655C117.925 323.822 117.673 327.006 117.164 331.208C116.656 335.408 116.401 338.592 116.401 340.759C116.74 341.844 117.078 342.794 117.418 343.606C117.078 344.418 116.147 350.381 114.623 361.491C113.099 372.603 112.337 379.242 112.337 381.41C112.337 383.036 112.845 384.391 113.86 385.475C112.845 383.308 112.845 379.241 113.86 373.281C114.537 367.319 115.893 363.66 117.925 362.305C117.925 359.324 118.688 354.783 120.212 348.687C121.737 342.589 122.498 338.051 122.498 335.07L121.991 332.223C122.668 330.327 123.854 325.313 125.548 317.182C126.565 310.679 128.088 306.207 130.121 303.769L129.105 301.735C130.797 296.316 131.644 292.116 131.644 289.135L131.644 287.509C134.694 277.211 136.388 269.08 136.726 263.119C139.775 250.652 142.146 241.302 143.842 235.069C147.566 212.036 150.616 196.995 152.988 189.948C154.003 187.238 155.695 184.664 158.068 182.225C171.012 200.942 180.835 215.439 187.611 224.925L189.643 225.332C191.675 226.687 195.91 231.701 202.347 240.373C197.942 246.607 195.74 251.212 195.74 254.193L196.248 256.633L200.313 249.723C198.959 254.6 196.248 261.376 192.184 270.048L192.37 269.644L193.139 268.031C198.498 256.813 203.044 249.175 206.777 245.117L207.427 244.438L209.459 247.283L200.313 261.105L209.459 248.095L212.002 248.095L214.032 249.723L213.017 248.502C213.355 247.961 213.864 247.69 214.541 247.69L215.049 246.876L215.214 246.57L215.304 246.724L215.558 247.283L215.558 246.064L215.481 246.067L215.552 245.946C216.88 243.582 218.101 242.173 219.211 241.718L219.622 241.592L221.146 241.592C222.163 239.425 222.502 237.933 222.163 237.121L222.798 237.629L223.687 238.34L223.687 239.154L221.657 245.657L224.196 243.625C225.549 240.644 226.398 238.883 226.736 238.34L227.245 237.933L228.26 239.154C225.132 243.989 222.776 248.262 221.188 251.969L220.844 252.797L221.43 251.665C223.394 248.142 226.394 245.398 230.433 243.437L231.818 242.812L232.325 243.625L231.818 244.438L233.342 243.625C233.68 244.708 233.85 245.928 233.85 247.283C228.26 254.6 224.005 261.613 221.082 268.32L221.031 268.447L224.196 263.136L224.196 264.357C224.534 265.169 224.704 265.712 224.704 265.981C219.783 276.343 215.752 284.645 212.613 290.888L212.368 291.371L213.694 288.791C214.938 286.382 216.178 283.988 217.42 281.61L221.146 274.519C226.566 264.763 231.31 258.395 235.374 255.414L233.85 261.105C242.32 244.031 248.247 235.223 251.634 234.682L252.143 233.056C253.497 231.701 254.684 229.939 255.699 227.772L256.208 227.161C256.509 226.8 260.155 221.033 267.146 209.858L269.927 205.414C276.702 194.574 281.444 188.069 284.155 185.902C285.849 211.376 286.864 230.346 287.202 242.812C287.879 261.24 290.252 287.663 294.318 322.079C297.366 334.003 300.245 342.947 302.956 348.909C306.003 365.168 308.883 375.196 311.594 378.989C305.495 352.702 302.447 320.046 302.447 281.023L310.057 349.253L308.036 320.86L308.063 320.907L307.957 319.487C307.706 315.87 307.567 312.249 307.54 308.627L307.529 306.225C307.529 301.889 308.036 299.043 309.053 297.689C309.053 297.148 308.376 294.302 307.02 289.152L308.036 287.933L309.561 288.34C309.9 288.972 310.201 289.544 310.463 290.056L310.534 290.197L310.313 289.477C310.232 289.154 310.171 288.829 310.13 288.502L310.068 287.526C310.068 285.9 310.576 284.409 311.594 283.055C311.594 288.281 311.78 293.059 312.153 297.389L312.298 298.908L312.243 297.823C312.172 296.213 312.128 294.49 312.109 292.654L312.102 290.778L312.609 284.274C314.641 289.966 315.996 294.302 316.675 297.283L316.167 300.941C317.86 303.651 318.367 308.258 317.69 314.761L319.214 314.355C319.891 314.084 320.401 314.355 320.74 315.168C319.723 313.272 319.214 311.103 319.214 308.665L319.214 306.225L320.74 304.193L319.214 303.786L318.707 302.567C318.707 301.753 318.876 300.534 319.214 298.908L319.214 294.843L319.723 294.031L319.723 292.404L320.464 293.296L320.464 293.295Z" id="Shape" fill="#FFFFFF" fill-rule="evenodd" stroke="none" />
    <g id="Group" transform="translate(178 60)">
      <path d="M69.7751 60.4541L66.3901 61.5913L69.7751 60.4541L69.7751 60.4541ZM75.0308 95.7793C75.1523 97.0622 75.962 98.179 77.1469 98.6982C78.3317 99.2174 79.7061 99.0576 80.7388 98.2806C81.7715 97.5035 82.3008 96.231 82.122 94.9548L75.0308 95.7793L75.0308 95.7793ZM0.140978 74.9678C-0.219862 76.2081 0.123609 77.5456 1.03815 78.4615C1.95268 79.3773 3.29437 79.7274 4.54271 79.3759C5.79106 79.0244 6.74962 78.0266 7.04653 76.7696L0.140978 74.9678L0.140978 74.9678ZM24.978 15.0212L27.8738 17.0967L24.9816 15.0212L24.978 15.0212ZM26.317 13.934L24.7031 10.7639L26.317 13.934L26.317 13.934ZM46.648 5.27288L45.5054 1.90381L46.648 5.27288L46.648 5.27288ZM78.4873 12.1035L79.3228 15.5579L78.4873 12.1035L78.4873 12.1035ZM87.3565 9.74741L86.3496 6.33569L87.3565 9.74741L87.3565 9.74741ZM93.6408 12.1284L90.4094 13.6459L93.6372 12.1284L93.6408 12.1284ZM93.6339 31.6853L95.8799 34.4467L93.6304 31.6853L93.6339 31.6853ZM75.1917 44.7744L77.1555 47.7455L75.1917 44.7744L75.1917 44.7744ZM58.906 5.77769L61.0841 2.95947L58.906 5.77769L58.906 5.77769ZM55.1713 63.9795C53.5306 65.0688 53.0878 67.2757 54.1822 68.9087C55.2767 70.5417 57.494 70.9825 59.1347 69.8931L55.1713 63.9795L55.1713 63.9795ZM21.4469 29.6205C21.4469 27.6578 19.8483 26.0667 17.8763 26.0667C15.9043 26.0667 14.3057 27.6578 14.3057 29.6205L21.4469 29.6205L21.4469 29.6205ZM66.3901 61.5911C69.543 70.8916 73.7384 84.7446 75.031 95.7794L82.1222 94.9549C80.7404 83.1276 76.3271 68.6704 73.16 59.3167L66.3901 61.5911L66.3901 61.5911ZM7.04666 76.7697C19.0903 31.1131 26.3029 19.2787 27.874 17.1002L22.0825 12.9421C19.6759 16.265 12.2062 29.2189 0.141113 74.9679L7.04667 76.7697L7.04666 76.7697ZM27.9345 17.1003C30.5482 15.7818 39.289 11.4887 47.7871 8.64209L45.5055 1.90039C36.504 4.92119 27.3882 9.40262 24.7031 10.7602L27.931 17.0968L27.9345 17.1003ZM79.3227 15.558C82.3555 14.832 85.37 14.0322 88.3634 13.1591L86.3496 6.33569C84.143 6.9825 81.1437 7.81055 77.6516 8.64571L79.3227 15.558L79.3227 15.558ZM90.4093 13.6457C91.7447 16.464 92.7017 20.0143 92.8409 23.1488C92.9909 26.4965 92.1946 28.2735 91.3841 28.9238L95.8795 34.4466C99.4287 31.5893 100.154 26.7844 99.975 22.8325C99.7893 18.6638 98.5682 14.1966 96.8686 10.6072L90.4058 13.6457L90.4093 13.6457ZM91.3842 28.9241C87.6672 31.92 80.8652 36.8101 73.2312 41.8069L77.1553 47.7454C84.8964 42.6776 91.909 37.6453 95.8796 34.4468L91.3842 28.9241L91.3842 28.9241ZM47.787 8.63851C50.7613 7.64342 52.0717 7.16365 53.2572 7.1139C54.0177 7.07836 54.9353 7.22051 56.7278 8.59231L61.0839 2.95942C58.3917 0.89817 55.8637 -0.111131 52.9537 0.0097017C50.4721 0.116318 47.8905 1.1043 45.5054 1.90392L47.7906 8.63851L47.787 8.63851ZM88.3634 13.1589C88.8357 13.0089 89.3429 13.0065 89.8167 13.1518C90.138 13.2655 90.3094 13.4361 90.4094 13.6458L96.865 10.6108C94.8119 6.27862 89.9845 5.27643 86.3496 6.33903L88.3634 13.1589L88.3634 13.1589ZM73.1564 59.3168C71.7074 55.0034 73.3471 50.2589 77.1555 47.7454L73.2314 41.8069C66.7095 46.0963 63.902 54.2154 66.3901 61.5913L73.1564 59.3168L73.1564 59.3168ZM56.728 8.59237C59.3631 10.611 63.1623 12.7006 67.0828 14.1222C70.8748 15.4975 75.4344 16.4891 79.3228 15.558L77.6518 8.64567C75.8522 9.07924 72.9386 8.68121 69.5251 7.44446C66.233 6.25036 63.0873 4.49475 61.0842 2.95947L56.728 8.59236L56.728 8.59237ZM27.8776 17.0969C27.8348 17.1538 27.8062 17.1787 27.8062 17.1751C27.8457 17.1478 27.8875 17.124 27.9312 17.104L24.7033 10.7639C23.6669 11.2705 22.768 12.0177 22.0825 12.9424L27.874 17.1005L27.8776 17.0969ZM59.1345 69.8931C64.344 66.4352 70.9496 62.2025 73.1134 53.5808L66.1865 51.8572C64.7796 57.4545 60.6734 60.3261 55.1711 63.9794L59.1345 69.8931L59.1345 69.8931ZM39.2998 50.9438C39.2998 55.8507 35.3033 59.8285 30.3733 59.8285L30.3733 66.9363C39.2472 66.9363 46.441 59.7762 46.441 50.9438L39.2998 50.9438L39.2998 50.9438ZM30.3734 59.8285C25.4434 59.8285 21.4469 55.8507 21.4469 50.9438L14.3057 50.9438C14.3057 59.7762 21.4994 66.9363 30.3734 66.9363L30.3734 59.8285L30.3734 59.8285ZM46.4411 50.944C46.4411 45.1441 46.0447 35.3958 43.5632 26.9909C42.3242 22.7973 40.4853 18.6464 37.6717 15.4906C34.7723 12.2317 30.8482 10.0745 25.8315 10.0745L25.8315 17.1822C28.5345 17.1822 30.5983 18.259 32.3372 20.2066C34.1653 22.2643 35.6221 25.2957 36.7147 28.9988C38.8964 36.3909 39.3034 45.304 39.3034 50.944L46.4446 50.944L46.4411 50.944ZM21.4469 50.9436L21.4469 29.6204L14.3057 29.6204L14.3057 50.9436L21.4469 50.9436L21.4469 50.9436Z" id="Shape" fill="#FFFFFF" fill-rule="evenodd" stroke="none" />
    </g>
  </g>
</svg>